<svg width="1400" height="800" viewBox="0 0 1400 800" fill="none" xmlns="http://www.w3.org/2000/svg"><rect width="1400" height="800" rx="32" fill="#0A0812"/><rect x="80" y="180" width="260" height="360" rx="28" fill="#151122" stroke="#4D2F76"/><rect x="570" y="110" width="260" height="260" rx="28" fill="#151122" stroke="#4D2F76"/><rect x="570" y="430" width="260" height="260" rx="28" fill="#151122" stroke="#4D2F76"/><rect x="1060" y="220" width="260" height="260" rx="28" fill="#151122" stroke="#4D2F76"/><path d="M340 360H560" stroke="#8B5CF6" stroke-width="12" stroke-linecap="round"/><path d="M340 360C430 360 430 560 560 560" stroke="#F59E0B" stroke-width="12" stroke-linecap="round"/><path d="M830 240H1050" stroke="#8B5CF6" stroke-width="12" stroke-linecap="round"/><path d="M830 560H1050" stroke="#F59E0B" stroke-width="12" stroke-linecap="round"/><rect x="130" y="230" width="160" height="18" rx="9" fill="#5EEAD4"/><rect x="620" y="160" width="160" height="18" rx="9" fill="#5EEAD4"/><rect x="620" y="480" width="160" height="18" rx="9" fill="#5EEAD4"/><rect x="1110" y="270" width="160" height="18" rx="9" fill="#5EEAD4"/></svg>