<svg width="1600" height="980" viewBox="0 0 1600 980" fill="none" xmlns="http://www.w3.org/2000/svg"><rect width="1600" height="980" rx="36" fill="#0B0717"/><rect x="60" y="60" width="1480" height="860" rx="30" fill="url(#a)" stroke="#3B2B60"/><rect x="120" y="120" width="420" height="180" rx="24" fill="#171028" stroke="#4B2F76"/><rect x="580" y="120" width="420" height="180" rx="24" fill="#171028" stroke="#4B2F76"/><rect x="1040" y="120" width="420" height="180" rx="24" fill="#171028" stroke="#4B2F76"/><rect x="120" y="340" width="660" height="500" rx="24" fill="#140E22" stroke="#4B2F76"/><rect x="820" y="340" width="640" height="240" rx="24" fill="#140E22" stroke="#4B2F76"/><rect x="820" y="600" width="300" height="240" rx="24" fill="#140E22" stroke="#4B2F76"/><rect x="1160" y="600" width="300" height="240" rx="24" fill="#140E22" stroke="#4B2F76"/><circle cx="210" cy="210" r="44" fill="#8B5CF6" fill-opacity="0.35"/><circle cx="670" cy="210" r="44" fill="#F59E0B" fill-opacity="0.35"/><circle cx="1130" cy="210" r="44" fill="#22C55E" fill-opacity="0.35"/><path d="M180 730C260 630 360 560 470 500C560 452 640 440 720 430" stroke="#8B5CF6" stroke-width="12" stroke-linecap="round"/><path d="M900 470H1370" stroke="#F59E0B" stroke-width="12" stroke-linecap="round"/><path d="M900 510H1290" stroke="#5EEAD4" stroke-width="12" stroke-linecap="round"/><path d="M900 550H1220" stroke="#8B5CF6" stroke-width="12" stroke-linecap="round"/><defs><linearGradient id="a" x1="80" y1="80" x2="1520" y2="900" gradientUnits="userSpaceOnUse"><stop stop-color="#0F0A1F"/><stop offset="1" stop-color="#151126"/></linearGradient></defs></svg>