<svg width="1200" height="900" viewBox="0 0 1200 900" fill="none" xmlns="http://www.w3.org/2000/svg"><rect width="1200" height="900" rx="36" fill="#090611"/><rect x="90" y="90" width="1020" height="720" rx="30" fill="#110B1E" stroke="#35224F"/><rect x="150" y="150" width="280" height="520" rx="24" fill="#181126" stroke="#4C2E74"/><rect x="460" y="150" width="280" height="520" rx="24" fill="#181126" stroke="#4C2E74"/><rect x="770" y="150" width="280" height="520" rx="24" fill="#181126" stroke="#4C2E74"/><rect x="190" y="210" width="200" height="180" rx="20" fill="#221736"/><rect x="500" y="210" width="200" height="180" rx="20" fill="#221736"/><rect x="810" y="210" width="200" height="180" rx="20" fill="#221736"/><rect x="190" y="430" width="160" height="16" rx="8" fill="#8B5CF6"/><rect x="190" y="460" width="120" height="12" rx="6" fill="#F59E0B"/><rect x="500" y="430" width="160" height="16" rx="8" fill="#8B5CF6"/><rect x="500" y="460" width="120" height="12" rx="6" fill="#F59E0B"/><rect x="810" y="430" width="160" height="16" rx="8" fill="#8B5CF6"/><rect x="810" y="460" width="120" height="12" rx="6" fill="#F59E0B"/><rect x="190" y="560" width="160" height="44" rx="22" fill="#8B5CF6"/><rect x="500" y="560" width="160" height="44" rx="22" fill="#8B5CF6"/><rect x="810" y="560" width="160" height="44" rx="22" fill="#8B5CF6"/></svg>